<?xml version="1.0" encoding="utf-8"?>
<!-- Generator: Adobe Illustrator 25.3.1, SVG Export Plug-In . SVG Version: 6.00 Build 0)  -->
<svg version="1.1" id="Calque_1" xmlns="http://www.w3.org/2000/svg" xmlns:xlink="http://www.w3.org/1999/xlink" x="0px" y="0px"
	 viewBox="0 0 271.7 50.7" style="enable-background:new 0 0 271.7 50.7;" xml:space="preserve">
<g>
	<path d="M8.2,25.1c3.6-4.3,8.1-7.9,13.1-10.5c5-2.6,10.4-4.4,16-5.4c11.1-2.1,22.5-1.9,33.6-0.7c11.2,1.2,22.2,3.4,33.1,6
		c10.9,2.7,21.6,5.8,32.4,8.9c10.7,3.1,21.3,6.8,32,10.2c10.6,3.4,21.4,6.6,32.4,8.2c11,1.6,22.4,1.5,33-1.9
		c10.7-3.3,20.2-9.6,28.3-17.3c-4,3.9-8.3,7.5-13,10.5c-4.7,3-9.8,5.5-15.1,7.3c-10.7,3.6-22.2,3.9-33.3,2.4
		c-11.1-1.5-22-4.6-32.7-7.9c-10.7-3.3-21.3-6.9-32-9.8c-10.7-3.1-21.5-6.1-32.4-8.7c-10.9-2.6-21.8-4.9-32.8-6.1
		c-5.5-0.7-11.1-1-16.6-1.1c-5.6-0.1-11.1,0.3-16.6,1.2c-5.5,0.9-10.8,2.5-15.8,4.9C16.6,17.7,12,21,8.2,25.1z"/>
</g>
</svg>
